<?xml version="1.0" encoding="UTF-8"?>
<svg width="16" height="15.733" version="1.1" xmlns="http://www.w3.org/2000/svg">
 <path d="m8.0066 0c-4.4275 0-8.0066 3.6056-8.0066 8.0661 0 3.5656 2.2933 6.5837 5.4747 7.652 0.39776 0.0803 0.54346-0.17356 0.54346-0.3871 0-0.187-0.013111-0.82797-0.013111-1.4958-2.2272 0.48085-2.6911-0.96154-2.6911-0.96154-0.35793-0.93482-0.88828-1.1751-0.88828-1.1751-0.72898-0.49412 0.0531-0.49412 0.0531-0.49412 0.80863 0.05342 1.2329 0.82797 1.2329 0.82797 0.7157 1.2285 1.869 0.88139 2.333 0.66768 0.066211-0.52084 0.27845-0.88139 0.50379-1.0817-1.7764-0.187-3.6454-0.88139-3.6454-3.9797 0-0.88139 0.31794-1.6025 0.82174-2.1633-0.079486-0.20027-0.35793-1.0284 0.07965-2.1368 0 0 0.67604-0.21371 2.2004 0.82797a7.6979 7.6979 0 0 1 2.0017-0.26714c0.67604 0 1.3652 0.09358 2.0016 0.26714 1.5245-1.0417 2.2005-0.82797 2.2005-0.82797 0.43758 1.1084 0.15897 1.9365 0.07949 2.1368 0.51707 0.56083 0.8219 1.2819 0.8219 2.1633 0 3.0983-1.869 3.7793-3.6587 3.9797 0.29172 0.2537 0.54346 0.73438 0.54346 1.4956 0 1.0817-0.013112 1.9498-0.013112 2.2168 0 0.21371 0.14586 0.46757 0.54346 0.38743 3.1814-1.0686 5.4747-4.0866 5.4747-7.6521 0.013109-4.4606-3.5792-8.0661-7.9933-8.0661z" clip-rule="evenodd" fill="#24292f" fill-rule="evenodd" stroke-width=".16389"/>
</svg>
