<?xml version="1.0" encoding="UTF-8"?>
<svg width="24" height="24" fill="none" version="1.1" viewBox="0 0 24 24" xmlns="http://www.w3.org/2000/svg">
 <path d="m16.519 8.4206c0.98302-0.81647 2.08-1.1271 3.1317-1.0486 1.1221 0.08378 2.1605 0.60732 2.9359 1.3677 0.77549 0.76053 1.3082 1.7778 1.3935 2.8756 0.08605 1.1078-0.28654 2.2681-1.269 3.2864-0.08984 0.09373-0.18172 0.18631-0.27549 0.27772-4.4561 4.3694-10.375 4.3809-10.436 4.381h-3.28e-4c-0.03028 0-5.9682-2.38e-4 -10.436-4.3816l-9.842e-4 -9.97e-4c-0.092233-0.09097-0.18306-0.18256-0.27251-0.27473l-7.318e-4 -7.59e-4c-0.9829-1.0174-1.3559-2.1775-1.2701-3.2853 0.085041-1.0976 0.61739-2.115 1.3927-2.8757 0.77521-0.76074 1.8135-1.2847 2.9358-1.3689 1.0518-0.078846 2.1489 0.23141 3.1325 1.0475 0.10573-1.2587 0.65679-2.2383 1.4567-2.9118 0.85312-0.7183 1.9648-1.0686 3.0626-1.0686 1.0978 0 2.2095 0.35029 3.0626 1.0686 0.79998 0.67356 1.3511 1.6534 1.4567 2.9123zm-4.3154 10.697-2.39e-4 -0.0056h3.78e-4zm-0.40798 0-1.51e-4 -0.0056h3.41e-4zm3.5518-6.0673c-0.12188 0-0.16411 0.17269-0.08631 0.26414 0.13767 0.16202 0.22052 0.3704 0.22052 0.59781 0 0.51595-0.42654 0.93422-0.95268 0.93422-0.5261 0-0.95264-0.41828-0.95264-0.93422 0-0.02762-0.03672-0.04133-0.05338-0.01897-0.15025 0.20241-0.25167 0.42957-0.29333 0.66814-0.02346 0.13435-0.13483 0.24563-0.27473 0.24563h-0.07722c-0.18261 0-0.33325-0.14517-0.30628-0.32108 0.18469-1.2054 1.3962-2.0797 2.7761-2.0797s2.5913 0.87429 2.7761 2.0797c0.027 0.17592-0.12378 0.32108-0.30628 0.32108-0.18261 0-0.3272-0.14593-0.36689-0.31952-0.18062-0.7901-1.0179-1.4372-2.1029-1.4372zm-8.4597 0.86195c0-0.0364-0.048072-0.05595-0.070783-0.027-0.16064 0.20559-0.27007 0.43831-0.31634 0.68366-0.027379 0.14493-0.1476 0.26533-0.29884 0.26533h-0.056652c-0.18262 0-0.33325-0.14518-0.30634-0.32108 0.18465-1.2061 1.3962-2.0797 2.7761-2.0797 1.3798 0 2.5913 0.87362 2.7761 2.0797 0.027 0.17592-0.12365 0.32108-0.30629 0.32108-0.18261 0-0.32717-0.14588-0.36684-0.31952-0.18053-0.79058-1.0178-1.4371-2.1029-1.4371-0.098541 0-0.13473 0.13578-0.068764 0.20715 0.15343 0.16587 0.24692 0.38602 0.24692 0.62756 0 0.51595-0.42654 0.93422-0.95265 0.93422-0.52614 0-0.95268-0.41828-0.95268-0.93422zm6.1716 2.2529c0.12904-0.12581 0.32849-0.18698 0.48871-0.10169 0.16026 0.08528 0.22106 0.28327 0.1056 0.42104-0.3761 0.44865-0.98501 0.73296-1.6567 0.73296-0.67122 0-1.2814-0.28132-1.658-0.73339-0.11507-0.1381-0.0535-0.3359 0.107-0.42061 0.16054-0.08471 0.35972-0.02277 0.48857 0.10322 0.24823 0.2427 0.6249 0.40674 1.0625 0.40674 0.43646 0 0.8136-0.16572 1.0624-0.40827z" clip-rule="evenodd" fill="#00501e" fill-rule="evenodd" stroke-width=".047456"/>
</svg>
