<?xml version="1.0" encoding="UTF-8"?>
<svg width="24" height="24" fill="none" version="1.1" viewBox="0 0 24 24" xmlns="http://www.w3.org/2000/svg">
 <path d="m15.582 9.163c0.7791-0.6471 1.6485-0.89331 2.4821-0.83107 0.88934 0.0664 1.7123 0.48134 2.3269 1.084 0.61462 0.60277 1.0368 1.409 1.1044 2.2791 0.0682 0.87802-0.2271 1.7976-1.0058 2.6047-0.0712 0.07428-0.14402 0.14766-0.21834 0.22011-3.5317 3.463-8.223 3.4721-8.271 3.4722h-2.6e-4c-0.024 0-4.7302-1.88e-4 -8.271-3.4727l-7.8e-4 -7.9e-4c-0.0731-0.0721-0.14509-0.14469-0.21598-0.21774l-5.8e-4 -6.01e-4c-0.77901-0.80637-1.0746-1.7258-1.0066-2.6038 0.0674-0.86993 0.48932-1.6763 1.1038-2.2792 0.6144-0.60293 1.4373-1.0182 2.3268-1.0849 0.83364-0.06249 1.7031 0.18341 2.4827 0.83021 0.0838-0.9976 0.52055-1.774 1.1545-2.3078 0.67615-0.5693 1.5572-0.84692 2.4273-0.84692 0.87009 0 1.7512 0.27763 2.4273 0.84692 0.63403 0.53384 1.0708 1.3104 1.1545 2.3082zm-3.4202 8.4779-1.9e-4 -0.0044h3e-4zm-0.32335 0-1.2e-4 -0.0044h2.7e-4zm2.815-4.8087c-0.0966 0-0.13007 0.13687-0.0684 0.20935 0.10911 0.12841 0.17478 0.29356 0.17478 0.4738 0 0.40892-0.33806 0.74043-0.75506 0.74043-0.41697 0-0.75503-0.33151-0.75503-0.74043 0-0.02189-0.0291-0.03276-0.0423-0.01504-0.11908 0.16042-0.19946 0.34046-0.23248 0.52954-0.0186 0.10648-0.10686 0.19468-0.21774 0.19468h-0.0612c-0.14473 0-0.26412-0.11506-0.24275-0.25448 0.14638-0.95535 1.1066-1.6483 2.2002-1.6483 1.0936 0 2.0538 0.69293 2.2002 1.6483 0.0214 0.13943-0.0981 0.25448-0.24275 0.25448-0.14473 0-0.25933-0.11566-0.29078-0.25324-0.14315-0.6262-0.80674-1.1391-1.6667-1.1391zm-6.7048 0.68315c0-0.02885-0.0381-0.04434-0.0561-0.0214-0.12732 0.16294-0.21405 0.34739-0.25072 0.54184-0.0217 0.11487-0.11698 0.21029-0.23685 0.21029h-0.0449c-0.14474 0-0.26412-0.11506-0.24279-0.25448 0.14635-0.95588 1.1066-1.6483 2.2002-1.6483 1.0936 0 2.0538 0.6924 2.2002 1.6483 0.0214 0.13943-0.098 0.25448-0.24275 0.25448-0.14473 0-0.2593-0.11562-0.29074-0.25324-0.14308-0.62658-0.80663-1.139-1.6667-1.139-0.0781 0-0.10678 0.10761-0.0545 0.16418 0.1216 0.13146 0.1957 0.30594 0.1957 0.49738 0 0.40892-0.33806 0.74043-0.75503 0.74043-0.417 0-0.75506-0.33151-0.75506-0.74043zm4.8914 1.7856c0.10227-0.09971 0.26035-0.14819 0.38733-0.0806 0.12702 0.06759 0.1752 0.22451 0.0837 0.3337-0.29808 0.35558-0.78068 0.58092-1.313 0.58092-0.53198 0-1.0156-0.22296-1.3141-0.58126-0.0912-0.10945-0.0424-0.26622 0.0848-0.33336 0.12724-0.06714 0.2851-0.01805 0.38722 0.08181 0.19674 0.19235 0.49527 0.32237 0.84209 0.32237 0.34592 0 0.64483-0.13134 0.84199-0.32358z" clip-rule="evenodd" fill="#00501e" fill-rule="evenodd" stroke-width=".037612"/>
</svg>
