<svg width="20" height="20" viewBox="0 0 20 20" fill="none" xmlns="http://www.w3.org/2000/svg">
<path d="M7.31763 16C12.7742 16 15.7588 11.479 15.7588 7.55888C15.7588 7.43019 15.7588 7.30222 15.7501 7.17569C16.3308 6.75528 16.832 6.23477 17.2301 5.63857C16.6886 5.87861 16.1142 6.03605 15.526 6.10563C16.1453 5.73477 16.6088 5.15151 16.8303 4.4644C16.248 4.80992 15.6111 5.05346 14.9468 5.18452C14.4996 4.70861 13.9079 4.39343 13.2634 4.28777C12.6189 4.18212 11.9576 4.29189 11.3818 4.60009C10.806 4.90829 10.3478 5.39772 10.0783 5.9926C9.80876 6.58748 9.74287 7.25463 9.89082 7.89074C8.71129 7.83163 7.55738 7.52514 6.50399 6.99115C5.45059 6.45717 4.52126 5.70763 3.77633 4.7912C3.39698 5.44423 3.28077 6.21728 3.45136 6.95298C3.62195 7.68867 4.06652 8.33169 4.69455 8.75113C4.22261 8.73744 3.76089 8.61047 3.34831 8.38095V8.41854C3.34859 9.10345 3.58574 9.76718 4.01955 10.2972C4.45335 10.8272 5.05712 11.1908 5.72845 11.3265C5.29162 11.4456 4.83329 11.4629 4.38872 11.3771C4.57826 11.9667 4.94737 12.4823 5.4444 12.8518C5.94144 13.2212 6.54153 13.4261 7.16074 13.4377C6.54554 13.9211 5.84109 14.2784 5.08767 14.4893C4.33425 14.7002 3.54664 14.7605 2.7699 14.6668C4.12668 15.5376 5.70545 15.9994 7.31763 15.9971" fill="#60A5FA"/>
</svg>
