<svg width="16px" height="16px" fill="none" xmlns="http://www.w3.org/2000/svg" viewBox="0 0 16 16">
    <path d="M8.8 12V8.8H12V7.2H8.8V4H7.2v3.2H4v1.6h3.2V12h1.6Z" fill="currentColor"></path>
    <path fill-rule="evenodd" clip-rule="evenodd"
          d="M8.835 0h-1.67c-1.09 0-1.957 0-2.657.057C3.79.116 3.18.238 2.62.523A4.8 4.8 0 0 0 .523 2.621C.238 3.18.116 3.79.057 4.508 0 5.208 0 6.075 0 7.165v1.67c0 1.09 0 1.958.057 2.657.059.717.181 1.328.466 1.887a4.8 4.8 0 0 0 2.098 2.098c.56.285 1.17.407 1.887.466.7.057 1.567.057 2.657.057h1.67c1.09 0 1.958 0 2.658-.057.716-.059 1.327-.181 1.886-.466a4.8 4.8 0 0 0 2.098-2.098c.285-.56.408-1.17.466-1.887.057-.7.057-1.567.057-2.657v-1.67c0-1.09 0-1.958-.057-2.657-.058-.717-.18-1.328-.466-1.887A4.8 4.8 0 0 0 13.38.523C12.82.238 12.21.116 11.493.057 10.793 0 9.926 0 8.835 0ZM3.347 1.949c.297-.151.674-.247 1.291-.297C5.265 1.6 6.067 1.6 7.2 1.6h1.6c1.134 0 1.935 0 2.562.052.618.05.995.146 1.291.297a3.2 3.2 0 0 1 1.399 1.398c.15.296.246.673.296 1.291.052.627.052 1.429.052 2.562v1.6c0 1.133 0 1.935-.052 2.562-.05.618-.146.995-.296 1.29a3.2 3.2 0 0 1-1.399 1.4c-.296.15-.673.246-1.29.296-.628.051-1.43.052-2.563.052H7.2c-1.133 0-1.935 0-2.562-.052-.617-.05-.994-.146-1.29-.297a3.2 3.2 0 0 1-1.399-1.398c-.15-.296-.246-.673-.297-1.291C1.601 10.735 1.6 9.933 1.6 8.8V7.2c0-1.133 0-1.935.052-2.562.05-.618.146-.995.297-1.29a3.2 3.2 0 0 1 1.398-1.4Z"
          fill="currentColor"></path>
</svg>