<svg fill="none" version="1.1" viewBox="0 0 30 16" xmlns="http://www.w3.org/2000/svg">
 <path d="m8 0c2.2381 0 4.2616 0.91909 5.7136 2.4004-1.0818 1.5977-1.7136 3.5248-1.7136 5.5996 0 2.0747 0.6318 4.0019 1.7136 5.5996-1.452 1.4813-3.4755 2.4004-5.7136 2.4004-4.4183 0-8-3.5817-8-8 0-4.4183 3.5817-8 8-8zm4.0857 5.9686c0.2587-0.32345 0.2063-0.79542-0.1172-1.0542-0.3234-0.25876-0.7954-0.20632-1.0542 0.11713l-3.4765 4.3457-1.9075-1.9075c-0.29289-0.2929-0.76777-0.2929-1.0607 0-0.29289 0.29289-0.29289 0.76776 0 1.0607l2.5 2.5c0.15085 0.1508 0.3588 0.2303 0.57181 0.2185 0.213-0.0118 0.4109-0.1138 0.54417-0.2804l4-5zm17.914 2.0314c0 4.4183-3.5817 8-8 8s-8-3.5817-8-8c0-4.4183 3.5817-8 8-8s8 3.5817 8 8zm-4.0315-3.0856c0.3235 0.25875 0.3759 0.73072 0.1172 1.0542l-4 5c-0.1333 0.1666-0.3312 0.2686-0.5442 0.2804s-0.421-0.0677-0.5718-0.2185l-2.5-2.5c-0.2929-0.2929-0.2929-0.76777 0-1.0607 0.2929-0.2929 0.7677-0.2929 1.0606 0l1.9075 1.9075 3.4765-4.3457c0.2588-0.32345 0.7308-0.37589 1.0542-0.11713z" clip-rule="evenodd" fill="#22C55E" fill-rule="evenodd"/>
</svg>
