<svg fill="none" version="1.1" viewBox="0 0 30 16" xmlns="http://www.w3.org/2000/svg">
 <path d="m13.657 2.3432c0.019 0.01901 0.0379 0.03811 0.0567 0.05729-1.0818 1.5977-1.7136 3.5248-1.7136 5.5996 0 2.0747 0.6318 4.0019 1.7136 5.5996-0.0188 0.0191-0.0377 0.0382-0.0567 0.0573-1.5003 1.5002-3.5352 2.3431-5.6569 2.3431-2.1217 0-4.1566-0.8429-5.6568-2.3431-1.5003-1.5003-2.3432-3.5352-2.3432-5.6569 0-2.1217 0.84286-4.1566 2.3432-5.6568 1.5003-1.5003 3.5351-2.3432 5.6568-2.3432 2.1217 0 4.1566 0.84286 5.6569 2.3432zm-3.1569 4.1568c0 0.66304-0.2634 1.2989-0.73223 1.7678-0.46884 0.46884-1.1047 0.73223-1.7678 0.73223s-1.2989-0.26339-1.7678-0.73223-0.73223-1.1047-0.73223-1.7678 0.26339-1.2989 0.73223-1.7678 1.1047-0.73223 1.7678-0.73223 1.2989 0.26339 1.7678 0.73223c0.46883 0.46884 0.73223 1.1047 0.73223 1.7678zm-2.5 3.5c-0.92958-8.5e-4 -1.8466 0.2147-2.6785 0.6295-0.83189 0.4148-1.5558 1.0175-2.1145 1.7605 0.60824 0.6657 1.3487 1.1972 2.174 1.5605 0.82529 0.3633 1.7173 0.5505 2.619 0.5495 0.90173 1e-3 1.7937-0.1862 2.619-0.5495 0.8253-0.3633 1.5658-0.8948 2.174-1.5605-0.5587-0.743-1.2826-1.3457-2.1145-1.7605s-1.7489-0.63035-2.6785-0.6295zm19.657 3.6569c-1.5003 1.5002-3.5352 2.3431-5.6569 2.3431s-4.1566-0.8429-5.6569-2.3431c-1.5002-1.5003-2.3431-3.5352-2.3431-5.6569 0-2.1217 0.8429-4.1566 2.3431-5.6568 1.5003-1.5003 3.5352-2.3432 5.6569-2.3432s4.1566 0.84286 5.6569 2.3432c1.5002 1.5003 2.3431 3.5351 2.3431 5.6568 0 2.1217-0.8429 4.1566-2.3431 5.6569zm-1.8766-5.1266c-0.1406 0.14065-0.3314 0.21967-0.5303 0.21967h-4.59l2.1 1.95c0.1459 0.1353 0.232 0.3229 0.2395 0.5217s-0.0642 0.3924-0.1995 0.5383-0.3229 0.232-0.5217 0.2395-0.3924-0.0642-0.5383-0.1995l-3.5-3.25c-0.0757-0.07021-0.1361-0.1553-0.1775-0.24994-0.0413-0.09464-0.0626-0.19679-0.0626-0.30006s0.0213-0.20542 0.0626-0.30006c0.0414-0.09464 0.1018-0.17973 0.1775-0.24994l3.5-3.25c0.1459-0.13526 0.3395-0.20703 0.5383-0.19953s0.3864 0.09366 0.5217 0.23953 0.207 0.3395 0.1995 0.53828c-0.0075 0.19879-0.0936 0.38646-0.2395 0.52172l-2.1 1.95h4.59c0.1989 0 0.3897 0.07902 0.5303 0.21967 0.1407 0.14065 0.2197 0.33142 0.2197 0.53033s-0.079 0.38968-0.2197 0.53033z" clip-rule="evenodd" fill="#3B82F6" fill-rule="evenodd"/>
</svg>
